<svg width="900" height="320" viewBox="0 0 900 320" fill="none" xmlns="http://www.w3.org/2000/svg">
  <defs>
    <linearGradient id="body" x1="120" y1="60" x2="780" y2="260" gradientUnits="userSpaceOnUse">
      <stop stop-color="#f39a4c" />
      <stop offset="1" stop-color="#ea7c2d" />
    </linearGradient>
    <linearGradient id="glass" x1="300" y1="80" x2="650" y2="210" gradientUnits="userSpaceOnUse">
      <stop stop-color="#2e2e33" />
      <stop offset="1" stop-color="#4c4c52" />
    </linearGradient>
    <linearGradient id="shadow" x1="120" y1="240" x2="780" y2="240" gradientUnits="userSpaceOnUse">
      <stop stop-color="#000" stop-opacity="0.35" />
      <stop offset="1" stop-color="#000" stop-opacity="0.1" />
    </linearGradient>
  </defs>
  <rect x="110" y="240" width="680" height="42" rx="21" fill="url(#shadow)" />
  <path
    d="M180 86C180 70 193 58 209 58H691C707 58 720 70 720 86V204C720 220 707 232 691 232H209C193 232 180 220 180 204V86Z"
    fill="url(#body)"
  />
  <path
    d="M250 100C250 88 260 78 272 78H628C640 78 650 88 650 100V192C650 204 640 214 628 214H272C260 214 250 204 250 192V100Z"
    fill="url(#glass)"
  />
  <path
    d="M210 120C210 110 218 102 228 102H302C312 102 320 110 320 120V180C320 190 312 198 302 198H228C218 198 210 190 210 180V120Z"
    fill="#1c1c1f"
  />
  <path
    d="M580 120C580 110 588 102 598 102H672C682 102 690 110 690 120V180C690 190 682 198 672 198H598C588 198 580 190 580 180V120Z"
    fill="#1c1c1f"
  />
  <path
    d="M420 95H480L500 115H400L420 95Z"
    fill="#141416"
    opacity="0.8"
  />
  <path
    d="M420 225H480L500 205H400L420 225Z"
    fill="#141416"
    opacity="0.8"
  />
  <path
    d="M150 140C150 128 160 118 172 118H200V202H172C160 202 150 192 150 180V140Z"
    fill="#1d1d1f"
  />
  <path
    d="M700 118H728C740 118 750 128 750 140V180C750 192 740 202 728 202H700V118Z"
    fill="#1d1d1f"
  />
  <rect x="326" y="116" width="248" height="88" rx="18" fill="#2a2a2e" />
  <rect x="350" y="128" width="200" height="64" rx="16" fill="#1f1f23" />
</svg>
